<?xml version="1.0" encoding="UTF-8"?>
<!DOCTYPE svg PUBLIC "-//W3C//DTD SVG 1.1//EN" "http://www.w3.org/Graphics/SVG/1.1/DTD/svg11.dtd">
<!-- Creator: CorelDRAW -->
<svg xmlns="http://www.w3.org/2000/svg" xml:space="preserve" width="27.7572mm" height="40.584mm" version="1.1" style="shape-rendering:geometricPrecision; text-rendering:geometricPrecision; image-rendering:optimizeQuality; fill-rule:evenodd; clip-rule:evenodd"
viewBox="0 0 2775.72 4058.4"
 xmlns:xlink="http://www.w3.org/1999/xlink"
 xmlns:xodm="http://www.corel.com/coreldraw/odm/2003">
 <defs>
  <style type="text/css">
   <![CDATA[
    .fil0 {fill:#FEFEFE;fill-rule:nonzero}
   ]]>
  </style>
 </defs>
 <g id="Camada_x0020_1">
  <metadata id="CorelCorpID_0Corel-Layer"/>
  <path class="fil0" d="M1387.86 1040.61c195.22,0 353.43,158.17 353.43,353.35 0,195.26 -158.21,353.43 -353.43,353.43 -195.23,0 -353.44,-158.17 -353.44,-353.43 0,-195.18 158.21,-353.35 353.44,-353.35zm894.05 -16.51c47.27,114.1 73.36,239.07 73.36,369.86 0,254.02 -153.55,636.65 -348.24,1019.82 -193.27,380.33 -427.28,762.12 -590.64,1016.99l-29.64 46.33 -29.87 -46.16c-163.54,-252.78 -397.06,-630.93 -589.53,-1009.61 -194.02,-381.75 -346.91,-765.67 -346.91,-1027.37 0,-130.79 26.1,-255.76 73.36,-369.86 49.13,-118.62 120.98,-225.22 209.91,-314.24 89.29,-89.07 195.89,-160.88 314.34,-209.96 114.05,-47.22 239.07,-73.27 369.81,-73.27 130.83,0 255.8,26.05 369.85,73.27 118.4,49.08 225.05,120.98 314.11,209.96 89.12,89.02 160.97,195.62 210.09,314.24zm388.76 -160.83c-70.21,-169.66 -173.43,-322.54 -301.46,-450.57 -128.17,-128.13 -281.06,-231.35 -450.54,-301.51 -163.49,-67.73 -342.78,-105.05 -530.81,-105.05 -188.17,0 -367.46,37.32 -530.82,105.05 -169.57,70.16 -322.41,173.43 -450.53,301.51 -128.03,128.03 -231.26,280.91 -301.47,450.44 -67.67,163.54 -105.04,342.83 -105.04,530.82 0,835.78 1199.29,2556.7 1215.27,2579.69l0.4 0.53c32.93,47.58 81.92,77.31 134.47,86.94 52.67,9.59 109.17,-0.84 156.74,-33.77 10.39,-7.19 20.33,-15.58 29.51,-24.72 9.15,-9.14 17.18,-18.68 24.06,-28.45l0.97 -1.5c18.82,-27.25 1214.3,-1766.68 1214.3,-2578.72 0,-187.99 -37.37,-367.28 -105.05,-530.69z"/>
 </g>
</svg>
