<?xml version="1.0" encoding="UTF-8"?>
<!DOCTYPE svg PUBLIC "-//W3C//DTD SVG 1.1//EN" "http://www.w3.org/Graphics/SVG/1.1/DTD/svg11.dtd">
<!-- Creator: CorelDRAW -->
<svg xmlns="http://www.w3.org/2000/svg" xml:space="preserve" width="54.5502mm" height="54.5502mm" version="1.1" style="shape-rendering:geometricPrecision; text-rendering:geometricPrecision; image-rendering:optimizeQuality; fill-rule:evenodd; clip-rule:evenodd"
viewBox="0 0 5455.02 5455.02"
 xmlns:xlink="http://www.w3.org/1999/xlink"
 xmlns:xodm="http://www.corel.com/coreldraw/odm/2003">
 <defs>
  <style type="text/css">
   <![CDATA[
    .fil0 {fill:#FEFEFE}
   ]]>
  </style>
 </defs>
 <g id="Camada_x0020_1">
  <metadata id="CorelCorpID_0Corel-Layer"/>
  <path class="fil0" d="M1599.5 250.6c685.1,-311.21 1432.2,-315.03 2086.19,-69.62 653.71,245.32 1213.68,739.61 1524.87,1424.66 311.21,685.1 315.03,1432.2 69.62,2086.19 -14.67,39.09 -30.25,77.84 -46.69,116.22 -2.59,-164.86 -37.25,-323.78 -98.11,-470.71 -7.87,-19 -16.15,-37.74 -24.83,-56.23 116.38,-504.89 74.03,-1050.59 -156.81,-1558.77 -341.99,-752.84 -1018.06,-1248.54 -1773.11,-1391.6 32.31,211.49 -167.27,454.31 234.8,703.24 247.21,-112.31 395.77,-168.9 561.6,-41.05 294.48,227.09 368.49,339.93 506.71,644.23 59.27,130.47 -62.59,440.3 -186.31,496.51 -76.63,34.82 -358.7,-25.29 -443.11,4.73 -79.33,28.22 -257.7,268.71 -314.04,338.25 -60.86,75.08 -86.25,120.7 -87.59,164.88 -77.26,32.3 -150.36,71.42 -218.47,116.52 -40.69,-125.45 -35.84,-226.35 57.55,-354.42 543.67,-745.6 533.67,-441.53 894.88,-513.83 152.9,-246.98 -60.6,-418.7 -241.37,-596.67 -116.63,-114.82 -135.74,-169.6 -332.45,-84.41 -442.93,191.84 -736.67,-288.44 -690.14,-663.11 9.64,-77.77 28.75,-166.7 24.48,-247.55 -408.12,-37.2 -831.17,27.74 -1230.97,209.36 -314.77,142.99 -584.47,344.49 -802.38,585.63 245.03,111.23 386.87,-195.57 719.49,-107.87 599.49,158.1 568.45,291.34 817.65,839.94 47.35,104.23 -5.84,385.71 -17.81,499.05 -39.14,370.53 -131.72,363.19 -512.22,536.04 -187.57,85.21 -378.61,-69.64 -509.81,-150.86 -316.61,143.82 -445.16,249.48 -596.21,-82.38 -88.3,-194.02 -128.48,-198.78 -510.56,-221.82 -60.28,441.29 -0.88,904.33 196.93,1339.81 14.28,31.44 29.3,62.32 44.73,92.86l142.18 -64.6c177.28,-80.53 -90.41,-459.04 275.03,-625.06 196.44,-89.22 333.38,21.48 356.9,73.24 41.69,91.76 72.17,477.05 97.38,602.99 369.45,-167.84 323.96,-141.19 612.32,-68.38 158.05,39.93 416.69,66.92 496.01,241.51 84.75,186.57 -5.91,525.51 68.55,733.77 515.09,85.06 552.23,-7.76 728.84,374.22 69.05,-17.41 137.82,-37.97 206.11,-61.75 132.19,45.77 272.88,70.64 417.94,70.64 40.73,0 81.16,-1.96 121.21,-5.8 -68.77,38.74 -139.76,74.85 -212.96,108.1 -685.1,311.21 -1432.2,315.03 -2086.19,69.62 -653.71,-245.32 -1213.68,-739.61 -1524.87,-1424.66 -311.21,-685.1 -315.03,-1432.2 -69.62,-2086.19 245.32,-653.71 739.61,-1213.68 1424.66,-1524.87zm2347.77 2643.82c257.77,0 491.19,104.52 660.14,273.45 168.94,168.95 273.46,402.37 273.46,660.15 0,226.19 -80.49,433.62 -214.36,595.21l788.3 788.29 -249.42 249.43 -812.41 -812.41c-132.46,72.1 -284.31,113.08 -445.71,113.08 -257.78,0 -491.2,-104.52 -660.15,-273.46 -168.95,-168.96 -273.45,-402.38 -273.45,-660.14 0,-257.79 104.52,-491.2 273.45,-660.15 168.95,-168.93 402.37,-273.45 660.15,-273.45zm410.72 522.88c-105.09,-105.09 -250.32,-170.1 -410.72,-170.1 -160.4,0 -305.62,65.01 -410.72,170.1 -105.09,105.09 -170.1,250.32 -170.1,410.72 0,160.4 65.01,305.63 170.1,410.72 105.1,105.08 250.32,170.1 410.72,170.1 160.4,0 305.63,-65.02 410.72,-170.1 105.08,-105.09 170.1,-250.32 170.1,-410.72 0,-160.4 -65.02,-305.63 -170.1,-410.72zm-3629.89 -2091.59c47.37,-12.45 98.11,6.95 163.11,19.47 355.87,68.57 387.13,-125.3 617.88,-136.81 7.39,-0.38 454.94,127.71 489.75,204.34 230.46,507.33 250,415.72 206.17,805.62 -34.27,304.9 7.14,244.81 -335.01,400.24 -234.54,106.54 -269.38,-260.09 -607.36,-106.54l-195.1 88.62c-270.76,-596.03 -401.3,-288.31 -715.48,-447.05 72.52,-296.04 199.92,-577.29 376.04,-827.89zm-62.44 2722.53c174.65,-79.25 271.92,-125.43 313.49,-266.98 20.66,-70.36 26.4,-301.54 10.62,-380.38l97.54 -44.32c79,184.71 37.03,405.32 121.79,591.91 115.47,254.2 465.69,-8.74 587.73,-2.88 50.22,2.41 419.87,96.14 509.51,151.64 34.66,173.22 -13.99,552.03 46.4,684.99 115.25,253.71 392.26,206.37 673.83,252.86l53.89 118.65c-940.14,137.54 -1894.39,-286.98 -2414.8,-1105.49z"/>
 </g>
</svg>
