<?xml version="1.0" encoding="UTF-8"?>
<!DOCTYPE svg PUBLIC "-//W3C//DTD SVG 1.1//EN" "http://www.w3.org/Graphics/SVG/1.1/DTD/svg11.dtd">
<!-- Creator: CorelDRAW -->
<svg xmlns="http://www.w3.org/2000/svg" xml:space="preserve" width="132.744mm" height="129.702mm" version="1.1" style="shape-rendering:geometricPrecision; text-rendering:geometricPrecision; image-rendering:optimizeQuality; fill-rule:evenodd; clip-rule:evenodd"
viewBox="0 0 13274.4 12970.22"
 xmlns:xlink="http://www.w3.org/1999/xlink"
 xmlns:xodm="http://www.corel.com/coreldraw/odm/2003">
 <defs>
  <style type="text/css">
   <![CDATA[
    .fil0 {fill:#FEFEFE;fill-rule:nonzero}
   ]]>
  </style>
 </defs>
 <g id="Camada_x0020_1">
  <metadata id="CorelCorpID_0Corel-Layer"/>
  <g id="_1876996756736">
   <g>
    <path class="fil0" d="M12458.59 5620.82c-51.86,-1477.64 -650.23,-2859.39 -1700.94,-3910.1 -1101.29,-1101.5 -2564.96,-1707.93 -4121.12,-1707.93 -3143.03,0 -5711.16,2501.68 -5821.86,5618.03 -479.64,213.15 -815.34,693.21 -815.34,1251.15l0 1537.12c0,754.79 614.05,1369.05 1369.05,1369.05 488.53,0 885.83,-397.3 885.83,-885.83l0 -2503.79c0,-458.68 -351.79,-832.7 -799.04,-877.15 165.1,-2715.03 2425.27,-4873.6 5181.37,-4873.6 1386.83,0 2690.9,540.59 3672.4,1522.09 901.27,901.27 1428.74,2076.02 1508.12,3351.72 -446.83,44.87 -797.98,418.68 -797.98,876.94l0 2503.57c0,462.49 357.29,838.84 809.84,877.99l0 632.67c0,712.46 -579.76,1292 -1292.23,1292l-956.95 0.03c-46.99,-134.2 -120.65,-258.23 -223.94,-361.1 -180.98,-181.82 -422.28,-281.94 -679.24,-281.94l-986.36 -0.01c-141.61,0 -277.5,30.06 -401.96,88.05 -339.51,156 -558.8,498.48 -558.8,872.49 0,256.96 100.12,498.25 281.52,678.81 181.4,181.82 422.7,281.94 679.24,281.94l986.35 0c408.94,0 769.41,-264.37 903.82,-643.25l956.3 0.01c1062.78,0 1927.22,-864.45 1927.22,-1927l0 -745.7c476.67,-214.42 809.84,-692.79 809.84,-1248.4l0 -1537.12c0,-557.52 -335.7,-1037.58 -815.13,-1250.73l-0.01 -0.01zm-10839.6 767.72l0 2503.57c0,138.22 -112.4,250.83 -250.83,250.83 -404.71,0 -734.05,-329.35 -734.05,-734.05l0 -1537.12c0,-404.91 329.34,-734.05 734.05,-734.05 138.43,0 250.83,112.61 250.83,250.83l0 -0.01zm7376.12 5691.89c-31.54,149.44 -165.74,258.02 -318.77,258.02l-986.35 0.01c-86.78,0 -168.28,-33.87 -230.51,-96.1 -61.38,-61.17 -95.25,-142.88 -95.25,-229.66 0,-126.79 74.3,-242.57 190.71,-296.12 41.49,-19.47 87,-29.42 135.04,-29.42l986.36 0c86.78,0 168.28,33.66 230.29,95.89 61.38,61.17 95.25,142.88 95.25,229.66 0.21,23.28 -2.33,46.57 -6.77,67.73l0 -0.01zm3643.61 -3671.55c0,404.7 -329.34,734.05 -734.05,734.05 -138.22,0 -250.83,-112.4 -250.83,-250.83l0 -2503.57c0,-138.22 112.4,-250.83 250.83,-250.83 404.71,0 734.05,329.35 734.05,734.05l0 1537.13z"/>
    <path class="fil0" d="M8692.43 8518.32c741.89,0 1345.35,-603.67 1345.35,-1345.35l0 -2741.28c0,-358.56 -140.12,-696.38 -394.55,-950.81 -254.43,-254.43 -592.03,-394.55 -950.81,-394.55l-4111.8 0c-741.89,0 -1345.35,603.46 -1345.35,1345.35l0 2741.28c0,741.89 603.46,1345.35 1345.35,1345.35l25.19 0.01 0 710.34c0,270.93 161.49,511.39 411.26,612.78 80.65,32.39 164.47,48.47 247.44,48.47 172.93,0 341.42,-68.58 464.82,-196.22l1181.73 -1175.38 1781.37 0.01zm-2135.91 -542.72l-1278.89 1271.9c-5.72,5.93 -9.95,10.37 -22.01,5.08 -14.61,-5.93 -14.61,-15.45 -14.61,-23.92l0 -1027.84c0,-175.26 -142.03,-317.5 -317.5,-317.5l-342.68 0c-391.8,0 -710.35,-318.77 -710.35,-710.35l0 -2741.28c0,-391.8 318.56,-710.35 710.35,-710.35l4111.81 -0.01c189.23,0 367.24,74.08 501.86,208.49 134.62,134.62 208.49,312.84 208.49,501.86l0 2741.28c0,391.8 -318.77,710.35 -710.35,710.35l-1912.19 0.01c-84.03,0 -164.46,33.23 -223.93,92.29l0 -0.01z"/>
    <path class="fil0" d="M5094.11 5384.6c-258.23,0 -468.41,210.4 -468.41,468.42 0,258.02 210.39,468.42 468.41,468.42 258.45,0 468.84,-210.4 468.84,-468.42 0,-258.02 -210.19,-468.42 -468.84,-468.42z"/>
    <path class="fil0" d="M6636.32 5384.6c-258.23,0 -468.42,210.4 -468.42,468.42 0,258.02 210.4,468.42 468.42,468.42 258.65,0 468.83,-210.4 468.83,-468.42 0,-258.02 -210.19,-468.42 -468.83,-468.42z"/>
    <path class="fil0" d="M8178.51 5384.6c-258.23,0 -468.42,210.4 -468.42,468.42 0,258.02 210.4,468.42 468.42,468.42 258.45,0 468.83,-210.4 468.83,-468.42 0,-258.02 -210.39,-468.42 -468.83,-468.42z"/>
   </g>
  </g>
 </g>
</svg>
