<?xml version="1.0" encoding="UTF-8"?>
<!DOCTYPE svg PUBLIC "-//W3C//DTD SVG 1.1//EN" "http://www.w3.org/Graphics/SVG/1.1/DTD/svg11.dtd">
<!-- Creator: CorelDRAW -->
<svg xmlns="http://www.w3.org/2000/svg" xml:space="preserve" width="169.333mm" height="44.6182mm" version="1.1" style="shape-rendering:geometricPrecision; text-rendering:geometricPrecision; image-rendering:optimizeQuality; fill-rule:evenodd; clip-rule:evenodd"
viewBox="0 0 16933.32 4461.82"
 xmlns:xlink="http://www.w3.org/1999/xlink"
 xmlns:xodm="http://www.corel.com/coreldraw/odm/2003">
 <defs>
  <style type="text/css">
   <![CDATA[
    .fil0 {fill:#FEFEFE}
    .fil1 {fill:#FEFEFE;fill-rule:nonzero}
   ]]>
  </style>
 </defs>
 <g id="Camada_x0020_1">
  <metadata id="CorelCorpID_0Corel-Layer"/>
  <g id="_2138769922672">
   <path class="fil0" d="M4733.95 2502.34c26.5,-18.9 123.74,-39.14 163.23,-44.66 65.34,-9.15 132.95,-7.89 199.35,-7.87 69.82,0.01 139.63,0.02 209.45,0.02 107.21,0.01 254.07,3.56 320.58,95.76 28.92,40.09 42.56,108.22 27.45,166.28 -14.4,55.28 -52.6,91.25 -91.78,115.41 -64.68,39.89 -128.23,48.91 -201.51,48.81l-627.72 0.37 0.95 -374.12zm4752.94 -1270.09c573.92,0 1039.18,465.26 1039.18,1039.18 0,573.92 -465.26,1039.17 -1039.18,1039.17 -573.92,0 -1039.18,-465.25 -1039.18,-1039.17 0,-573.92 465.26,-1039.18 1039.18,-1039.18zm-18.54 1389.98l18.54 19.55 23.28 -24.55 4.7 5.05c52.61,56.52 115.04,114.28 191.32,140.73 72.38,25.07 157.8,22.08 260.19,-36.84 -82.82,-15.84 -140.42,-62.82 -191.85,-104.79 -78.25,-63.84 -141.67,-115.56 -260.27,-17.12l-4.7 3.91 -22.67 -24.18 -22.67 24.18 -4.71 -3.91c-118.59,-98.44 -182,-46.72 -260.26,17.12 -51.42,41.97 -109.02,88.95 -191.85,104.79 102.39,58.92 187.81,61.91 260.19,36.84 76.29,-26.45 138.71,-84.21 191.32,-140.73l4.7 -5.05 4.74 5zm18.54 -311.1l288.15 0c22.4,0 42.21,0 57.7,-0.14 18.19,-0.17 36.29,-0.52 56.54,-1.2 19.94,-0.68 41.99,-1.7 63.6,-4.37 21.23,-2.62 41.77,-6.82 58.9,-13.82 16.99,-6.95 30.93,-16.77 41.96,-26.43 11.08,-9.72 19.35,-19.42 24.85,-25.87l15.61 -18.31 59.63 55.08 -17.5 20.53c-6.84,8.01 -17.11,20.05 -30.59,32.44 -13.64,12.54 -30.54,25.43 -50.46,34.93 -19.83,9.47 -42.59,15.55 -65.78,19.57 -22.9,3.97 -46.3,5.95 -67.74,7.27 -42.88,2.61 -77.69,2.62 -122.95,2.62l-623.84 0c-21.86,0 -41.2,0 -62.44,-0.35 -19.92,-0.32 -39.36,-0.98 -60.51,-2.27 -21.44,-1.32 -44.84,-3.3 -67.74,-7.27 -23.19,-4.02 -45.95,-10.1 -65.78,-19.57 -19.91,-9.5 -36.81,-22.4 -50.45,-34.93 -13.48,-12.39 -23.75,-24.44 -30.58,-32.44l-17.52 -20.53 59.63 -55.07 15.62 18.3c5.5,6.46 13.77,16.16 24.84,25.87 11.02,9.66 24.96,19.48 41.96,26.43 17.13,7 37.67,11.2 58.89,13.82 21.61,2.67 43.65,3.69 63.61,4.37 39.65,1.34 72.08,1.34 114.22,1.34l288.17 0zm-0.64 -497.78l-343.26 -35 0.04 475.36 -83.05 0 0 -567.9 426.91 43.63 426.92 -43.63 0 567.9 -83.05 0 0.02 -475.36c-65.42,6.67 -297.06,39.79 -344.53,35zm-275.04 348.14l91.98 92.26 -103.08 0 0 -103.38 11.1 11.12zm0 -162.21l254.09 254.43 -99.25 0 -165.94 -165.97 0 -99.57 11.1 11.11zm0 -162.4l416.49 416.83 -99.24 0 -328.35 -328.37 0 -99.56 11.1 11.1zm352.32 946.43c-26.52,-18.87 -52.2,-41.71 -76.64,-68.84 -24.43,27.12 -50.12,49.97 -76.62,68.83 -85.87,61.12 -180.61,80.89 -270.96,70.4 -90.16,-10.47 -175.96,-51.13 -244.16,-110.89 -27.15,-23.79 -51.51,-50.61 -72.24,-79.73l-3.43 -4.81 61.4 -52.79 3.76 7.29c1.15,2.23 15.63,18.62 28.45,31.72 7.42,7.58 13.76,13.78 15.19,14.44 87.26,-0.01 151.42,-50.08 213.63,-98.66 94.68,-73.94 185.08,-144.47 344.98,-41.15 159.89,-103.32 250.3,-32.79 344.99,41.15 62.2,48.58 126.36,98.65 213.63,98.66 1.42,-0.66 7.77,-6.86 15.19,-14.44 12.82,-13.1 27.3,-29.49 28.45,-31.72l3.77 -7.29 61.37 52.79 -3.43 4.81c-20.73,29.12 -45.09,55.95 -72.24,79.74 -68.17,59.75 -153.97,100.41 -244.14,110.88 -90.35,10.49 -185.09,-9.29 -270.95,-70.39zm3063.99 529.3l0.17 -1493.81c0,-32.25 2.89,-476.97 -1.17,-496.62l-393.82 0.57 0.07 1322.46c-4.09,-2.61 -1.29,-0.71 -4.6,-3.69l-552.4 -656.91c-13.05,-16.33 -26.19,-30.56 -39.03,-46.68l-39.31 -46.33c-14.32,-15.97 -25.74,-31.47 -40.29,-47.74l-197.72 -235.47c-13.83,-15.45 -25.5,-31.45 -39.16,-46.51l-39.13 -46.52c-6.69,-7.49 -13.8,-16.62 -20.41,-24.9 -6.85,-8.6 -12.79,-14.52 -19.82,-22.92l-118.15 -141.31c-8.19,-7.82 -305.63,-3 -340.98,-3.89l-169.39 0.28 256.06 310.28c12.45,14.51 27.65,28.31 28.15,42.89 0.78,23.04 -0.18,48.29 -0.18,71.61l0.15 1564.3 387.28 -1.1 0.41 -1177.7c11.21,8.78 22.26,25.11 32.55,36.92 49.54,56.87 103.01,125.38 153.53,184.49l185.33 221.57c20.65,25.57 40.64,48.14 61.58,74.12l307.38 368.55c21.2,24.06 40.08,48.27 61.82,73.82 13.34,15.67 178.24,217.55 185.95,219.38l355.13 0.86zm2184.35 -391.98c-0.5,-0.32 -1.17,-0.71 -1.54,-0.84l-5.59 -1.56c-1.69,-0.2 -7.45,-0.03 -9.5,-0.01 -6.38,0.06 -12.73,0.07 -19.11,0.07l-1116.6 -0.05 0.18 -379.13c112.22,-47.73 224.08,-49.65 357.2,-49.65 33.07,0 381.11,1.76 403.89,-0.57l0.09 -396.01c-20.88,-3.08 -368.25,-0.9 -399.22,-0.9 -117.61,0 -260.36,-1.71 -361.62,39.24l0.09 -412.73 1041.34 -0.52c5.17,-14.46 2.91,-247.36 1.99,-280.98 -0.47,-25.74 3.19,-95.17 -1.6,-116.23l-1307.88 -0.17c-21.51,-0.74 -113.23,-2.56 -129.28,1.41l0.63 1956.27c-0.3,5.84 -0.6,12.81 -0.5,18.62 0.05,3.07 0.15,6.08 0.76,9.04 1.12,5.44 -0.07,2.13 2.19,5.59l1544.19 0.27 -0.07 -196.8 -0.04 -194.36zm-10077.24 -828.08c-6.12,-9.17 -2.46,-142.04 -2.46,-152.21l-0.02 -264.26 644.05 0.73c50.33,-2.99 109.95,18 140.21,41.23 37.49,28.78 49.6,82.15 50.73,129.44 2.83,118.51 -53.75,182.22 -158.7,200.21 -51.73,8.88 -285.06,4.81 -354.74,4.8 -57.4,-0.01 -116.94,0.34 -173.39,7.64 -26.23,3.4 -51.36,7.59 -76.67,13.38 -23.66,5.42 -47.68,14.84 -69.01,19.04zm2064.12 49.16l-1.07 -469.19c189.8,0 379.59,0.08 569.38,0.08 95.49,0 173.15,-4.9 251.77,34.94 64.04,32.45 94.53,102.51 86.37,199.59 -18.14,215.78 -224.22,195.37 -376.22,195.45 -169.11,0.1 -380.08,-13.81 -530.23,39.13zm-4601.24 1127.96l257.87 -0.13c56.09,-82.48 44.27,-134.65 154.24,-190.81 181.41,-92.63 407.02,-82.47 608.27,-82.47 116.05,0 232.1,-0.08 348.15,-0.01l122.17 273.41 436.51 -0.12c-1.49,-11.96 -61.23,-134.24 -71.08,-154.31 -24.74,-50.42 -49.34,-101.82 -72.81,-153.14 -47.2,-103.22 -97.94,-203.6 -145.25,-306.94 -69.4,-151.63 -148.67,-308.66 -217.65,-460.84 -16.05,-35.4 -62.78,-126.85 -72.71,-153.67l-375.08 -792.87 -429.52 -0.06c36.87,86.1 75.14,173.04 114.35,257.85 17.97,38.85 15.09,27.36 -2.48,64.17 -150.65,315.54 -307.4,629.68 -457.28,944.73 -20.09,42.23 -40.77,82.86 -60.69,124.83 -19.9,41.93 -40.32,85.8 -61.16,127.04 -2.55,5.03 -240.53,490.85 -242.64,503.46l166.79 -0.12zm4207.93 -1733.93l0.92 1733.89 390.52 -0.02c1.31,-237.76 -1.15,-479.23 1,-715.23l0.17 -9.5c109.82,-40.58 175.64,-49.83 297.69,-49.82l171.36 0.01c9.19,0 11.81,14.76 20.16,32.03 6.03,12.45 11.21,22.81 17,35.28l169.76 356.26c24.82,53.49 81.02,152.87 125.25,191.32 11.47,9.98 5.44,9.67 26.66,25.71 10.02,7.59 18.19,16.54 28.13,24.18 150.8,116 336.54,109.76 525.12,109.76l0.05 -399.78 -143.39 4.94c-68.77,0 -102.73,-16.32 -135.06,-52.04 -33.16,-36.65 -53.89,-67.34 -82.9,-107.47 -25,-34.59 -45.53,-83.06 -65.55,-124.74l-61.82 -128.98c60.19,-15.93 143.86,-64.12 183.74,-94.92 53.97,-41.69 95.73,-83.34 134.74,-146.16 77.47,-124.76 106.22,-290.07 75.64,-462.45 -57.02,-321.41 -330.27,-477.77 -643.79,-477.76l-1035.38 0.03 -0.02 255.46zm8836.6 1439.09l49.8 53.76c20.02,23.17 80.54,77.14 108.41,98.67 105.37,81.41 205.52,135.5 335.66,178.46 307.36,101.48 726.04,44.07 978.45,-162.76 37.78,-30.95 71.13,-67.43 101.27,-105.75 105.96,-134.75 135.47,-313.92 108.03,-490.52 -13.63,-87.7 -38.6,-155.4 -85.48,-224.24 -12.49,-18.33 -43.05,-51.4 -44.85,-56.25 -10.63,-4.83 -16.88,-12.97 -25.3,-21.18 -7.55,-7.36 -17,-14.29 -24.94,-20.33 -167.89,-127.87 -432.34,-154.95 -641.23,-157.21 -118.99,-1.29 -377.51,4.29 -388.94,-143.88 -7.88,-102.11 79.62,-183.11 140.9,-214.72 96.02,-49.52 181.14,-53.96 300.89,-40.96 151.98,16.5 262.77,75.2 374.3,159.22l98.77 77.69c7.41,-5.57 24.68,-26.74 31.44,-35.56 4.65,-6.07 10.51,-12.44 15.3,-18.03l121.37 -142.82c5.97,-6.97 9.95,-12.12 15.25,-18.07l60.15 -71.47c-8.35,-15.88 -63.89,-59.87 -76.99,-73.74 -8.48,-8.97 -16.03,-14.89 -25.26,-22.27 -120.03,-95.92 -213.56,-157.69 -378.27,-207.24 -216.1,-65 -466.95,-68.9 -670.21,12.4 -177.23,70.9 -326.15,209.87 -393.68,387.08 -75.77,198.81 -35.89,447.14 127.98,579.26 175.08,141.17 392.92,161.38 620.76,162.57 141.05,0.74 393.65,-7.69 444.76,140.47 18.42,53.4 17.83,116.16 -3.54,167.12 -37.63,89.74 -140.29,135.05 -227.14,163.3 -93.36,30.37 -248.55,43.87 -350.3,26.44 -115.85,-19.84 -215.04,-66.49 -302.35,-137.6l-52.12 -45.46c-40.12,-40.61 -56.36,-61.32 -92.53,-102.64 -6.48,-7.41 -16.06,-18.39 -20.82,-26.33 -6.49,2.65 -29.8,26.12 -37.12,32.46l-141.13 132.53c-12.42,10.84 -98.66,89.75 -102.99,99.23l51.7 68.37zm-9255.38 -9.37c6.16,-26.83 48.3,-78.69 59.67,-199.28 13.5,-143.24 -14.58,-301.2 -89.95,-419.55 -15.95,-25.03 -37.52,-55.32 -55.38,-73.11 -11.37,-11.33 -21.22,-20.88 -32.18,-32.11 -7.51,-7.68 -9.67,-8.48 -16.64,-14.33 -4.66,-3.91 -14.51,-11.79 -16.99,-15.42 72.9,-86.02 111.18,-177.18 121.7,-298.26 8.61,-99.18 -4.2,-221.93 -47.58,-312.18 -5.31,-11.04 -14.78,-28.54 -18.05,-39.29 -3.58,-2.16 -17.86,-28 -22.31,-34.53 -22.47,-32.94 -36.26,-51.82 -64.52,-78.36 -5.32,-4.99 -8.41,-9.6 -14,-14.53 -158.33,-140.12 -317.61,-154.28 -532.05,-154.27 -305.63,0 -611.26,0.08 -916.89,0.08 -0.13,331.87 -0.02,663.74 -0.02,995.6 0,14.35 -2.99,977.4 1.51,993.62 324.97,0 649.93,0.17 974.9,0.2 189.21,0.02 342.7,-29 490.71,-119.86 44.73,-27.46 96.77,-72.65 128.97,-113.88 9.49,-12.15 16.71,-22.2 26.16,-35.77 5.03,-7.2 18.11,-30.83 22.94,-34.77zm-5823.3 -140.49c0.5,0.43 1.24,0.45 1.47,1.35l7.96 9.7c21.04,32.62 36.47,52.04 59.71,83.04 6.56,8.74 12.37,13.95 18.61,21.76 6.16,7.73 12.51,14.36 18.44,22.09 19.23,25.03 105.23,102.97 127.7,119.83 8.34,6.25 14.73,11.96 22.68,17.78 8.53,6.25 14.72,10.41 23.58,16.89 146.29,106.92 337.41,176.7 546.79,192.02 190.41,13.92 400.8,-29.26 547.05,-103.57 39.83,-20.23 70.76,-37.38 105.97,-58.18 46.51,-27.51 121.56,-85.19 162.35,-123.33 18.57,-17.35 89.19,-90.62 99.87,-106.19 -3.49,-8.34 -22.07,-31.76 -29.08,-41.35 -10.71,-14.64 -19.81,-26.56 -30.31,-41.08l-167.6 -227.47c-3.28,-4.21 -5.28,-7.03 -8.06,-10.89 -1.32,-1.83 -2.62,-3.74 -4.19,-5.41 -4.72,-5 -0.97,-1.72 -5.61,-4.87 -16.85,31.41 -98.1,125.99 -123.98,149.32 -44.09,39.77 -95.97,81.35 -161.19,112.36 -137.26,65.26 -294.38,91.37 -462.83,53.89 -266.06,-59.18 -499.12,-272.6 -522.87,-571.37 -14.29,-179.8 39.23,-332.06 125.83,-451.74 68.53,-94.71 183.25,-176.75 297.27,-216.88 151.65,-53.38 317.42,-57.6 472.83,-8.77 215.34,67.65 303.9,205.77 330.62,219.74 5.36,-10.52 21.48,-25.96 29.98,-36.75l221.17 -259.18c-29.92,-35.09 -98.88,-96.9 -136.8,-125.94 -17.53,-13.43 -32.43,-23.78 -50.83,-37.23 -31.56,-23.08 -72.17,-46.65 -109.99,-66.16l-121.94 -56.87c-11.2,-0.35 -61.77,-19.11 -78.35,-23.67 -89.94,-24.73 -168.57,-39.71 -265.17,-41.95 -125.82,-2.92 -250.15,12.83 -361.45,47.96 -137.52,43.4 -261.69,108.87 -366.69,195.01 -55.62,45.63 -81.38,71.81 -130.96,126.11 -138.12,151.26 -223.64,361.23 -242,577.01 -16.8,197.24 30.65,415.42 123.07,586.47 5.99,11.1 35.89,60.77 36.95,66.52zm2619.08 -183.26l291.86 -633.13c11.9,9.87 234.4,450.78 269.49,517.17 6.56,12.43 13.28,24.79 19.69,37.28 5.3,10.31 14.8,27.34 18.86,38.4 -222.96,0.41 -484.87,-28.06 -599.9,40.28z"/>
   <path class="fil1" d="M3190.97 4217.4l0 231.18 -71.78 0 0 -496.92 71.78 0 0 193.05 323.57 0 0 -193.05 71.78 0 0 496.92 -71.78 0 0 -231.18 -323.57 0zm998.5 39.32l180.01 0 -89.45 -190.46 -90.56 190.46zm-166.93 191.86l234.29 -496.92 45.29 0 236.14 496.92 -77.12 0 -59.82 -126.32 -243.14 0 -59.44 126.32 -76.2 0zm952.12 0l0 -496.92 59.81 0 188.47 290.76 188.85 -290.76 59.82 0 0 496.92 -71.78 0 0 -357.29 -176.89 276.25 -176.5 -276.25 0 357.29 -71.78 0zm1304.03 -424.23l-208.72 0 0 116.78 209.82 0c23.02,0 40.31,-4.96 52.09,-14.89 11.6,-9.74 17.49,-24.43 17.49,-43.89 0,-19.27 -5.89,-33.77 -17.49,-43.5 -11.78,-9.73 -29.45,-14.5 -53.19,-14.5zm24.3 189.47l-233.02 0 0 163.26 233.02 0c25.22,0 44.72,-7.15 58.71,-21.65 13.81,-14.3 20.8,-34.56 20.8,-60.57 0,-25.62 -6.99,-45.49 -20.8,-59.79 -13.99,-14.09 -33.49,-21.25 -58.71,-21.25zm-304.8 234.76l0 -495.73 282.71 0c46.75,0 82.28,10.33 106.39,31.18 24.11,20.66 36.07,51.25 36.07,91.37 0,20.25 -3.68,38.13 -11.23,53.82 -7.54,15.69 -18.58,28.4 -32.94,38.13 25.58,15.49 44.91,34.36 57.79,56.8 13.07,22.24 19.51,47.47 19.51,75.28 0,46.27 -14.36,82.61 -42.89,109.23 -28.71,26.61 -68.28,39.92 -118.71,39.92l-296.7 0zm968.51 -495.73l71.78 0 0 318.17c0,47.67 10.49,79.84 31.28,96.52 20.8,16.69 62.22,25.03 124.25,25.03 62.21,0 103.8,-8.34 124.6,-25.03 20.8,-16.68 31.29,-48.85 31.29,-96.52l0 -318.17 71.78 0 0 338.43c0,60.97 -17.85,104.86 -53.56,132.07 -35.89,27.21 -94.05,40.72 -175.04,40.72 -80.43,0 -138.41,-13.31 -173.56,-40.12 -35.16,-26.81 -52.82,-70.9 -52.82,-132.67l0 -338.43zm1053.72 206.16l244.79 0c24.85,0 43.8,-5.76 56.87,-17.48 13.07,-11.72 19.7,-28.4 19.7,-50.24 0,-21.66 -6.63,-38.34 -19.7,-49.66 -13.07,-11.51 -32.02,-17.28 -56.87,-17.28l-244.79 0 0 134.66zm0 72.69l0 216.88 -71.79 0 0 -495.73 316.58 0c47.12,0 83.93,12.32 110.61,36.75 26.69,24.42 39.95,58.39 39.95,101.88 0,35.16 -10.49,65.74 -31.66,91.56 -20.99,25.82 -48.41,41.71 -82.27,47.47l128.28 218.07 -78.22 0 -130.68 -216.88 -200.8 0zm1205.94 23.83l0 -71.5 189.94 0 0 149.95c-26.69,42.5 -61.29,74.88 -104.18,96.92 -42.7,22.05 -92.4,33.17 -148.9,33.17 -84.85,0 -154.24,-24.63 -208.17,-74.08 -53.92,-49.45 -80.98,-112.22 -80.98,-188.08 0,-76.07 27.06,-138.83 81.35,-188.68 54.3,-49.85 123.51,-74.68 207.8,-74.68 53.19,0 100.31,9.94 141.54,29.6 41.23,19.86 75.46,48.86 102.7,87.18l-55.4 42.9c-19.51,-27.4 -45.83,-49.05 -78.96,-64.74 -33.31,-15.69 -69.94,-23.44 -109.88,-23.44 -62.95,0 -114.48,18.07 -154.79,54.03 -40.31,36.14 -60.37,81.62 -60.37,136.64 0,55.01 20.06,100.49 60.19,136.64 40.12,35.95 91.65,54.02 154.97,54.02 39.58,0 76.2,-7.74 109.88,-23.23 33.5,-15.5 57.06,-35.16 70.31,-59.19l0 -53.43 -117.05 0zm690.39 -302.68l71.78 0 0 318.17c0,47.67 10.49,79.84 31.29,96.52 20.8,16.69 62.21,25.03 124.24,25.03 62.21,0 103.81,-8.34 124.61,-25.03 20.79,-16.68 31.28,-48.85 31.28,-96.52l0 -318.17 71.78 0 0 338.43c0,60.97 -17.85,104.86 -53.55,132.07 -35.89,27.21 -94.06,40.72 -175.04,40.72 -80.43,0 -138.41,-13.31 -173.56,-40.12 -35.16,-26.81 -52.83,-70.9 -52.83,-132.67l0 -338.43zm980.84 495.73l0 -496.92 431.79 0 0 72.69 -360.01 0 0 123.94 236.32 0 0 71.49 -236.32 0 0 157.3 379.89 0 0 71.5 -451.67 0zm995 -289.57l244.8 0c24.85,0 43.8,-5.76 56.87,-17.48 13.07,-11.72 19.69,-28.4 19.69,-50.24 0,-21.66 -6.62,-38.34 -19.69,-49.66 -13.07,-11.51 -32.02,-17.28 -56.87,-17.28l-244.8 0 0 134.66zm0 72.69l0 216.88 -71.78 0 0 -495.73 316.58 0c47.12,0 83.93,12.32 110.61,36.75 26.69,24.42 39.95,58.39 39.95,101.88 0,35.16 -10.5,65.74 -31.66,91.56 -20.99,25.82 -48.41,41.71 -82.27,47.47l128.28 218.07 -78.23 0 -130.67 -216.88 -200.81 0zm894.52 216.88l0 -498.11 72.88 0 0 498.11 -72.88 0zm678.25 -191.86l180 0 -89.45 -190.46 -90.55 190.46zm-166.95 191.86l234.31 -496.92 45.28 0 236.14 496.92 -77.12 0 -59.82 -126.32 -243.14 0 -59.45 126.32 -76.2 0z"/>
   <g>
    <path class="fil1" d="M5444.1 383.16l29.34 -54.67c26.57,19.17 55.6,34.17 86.96,44.83 31.51,10.84 61.47,16.17 90.2,16.17 34.44,0 62.24,-7.5 83.39,-22.67 21.17,-15.16 31.67,-34.49 31.67,-58.16 0,-23.83 -9.73,-41.33 -29.04,-53 -19.3,-11.5 -49.73,-17.83 -91.43,-19.16 -70.43,-1 -118.77,-9.84 -145.03,-26.33 -26.25,-16.67 -39.38,-44.17 -39.38,-82.5 0,-35.83 14.36,-64.66 43.24,-86.5 28.89,-21.83 67.65,-32.66 116.3,-32.66 33.21,0 65.33,5 96.69,15.17 31.19,9.99 61.31,25 90.35,44.83l-30.43 54c-24.09,-17.51 -50.04,-31.01 -77.84,-40.67 -27.8,-9.5 -54.36,-14.33 -79.69,-14.33 -29.35,0 -52.98,5.5 -70.74,16.49 -17.77,11.17 -26.72,25.51 -26.72,43.34 0,18.49 8.95,31.66 26.87,39.49 17.92,7.84 49.12,11.67 93.45,11.67 61.62,0 107.96,11.17 139.31,33.67 31.35,22.5 47.1,55.82 47.1,100.16 0,39.33 -15.91,71.99 -47.72,98.16 -31.82,26 -73.05,38.99 -123.72,38.99 -37.52,0 -74.59,-5.83 -111.66,-17.33 -36.92,-11.5 -70.73,-27.83 -101.47,-48.99zm801.74 53.33l0 -417.98 61.15 0 0 417.98 -61.15 0zm504.11 0l0 -416.98 31.66 0 245.42 292.98 0 -292.98 59.3 0 0 416.98 -31.66 0 -245.41 -291.99 0 291.99 -59.31 0zm1186.15 -102c-21.93,37.33 -50.81,65.83 -86.64,85.5 -35.68,19.66 -76.46,29.49 -122.02,29.49 -67.8,0 -123.71,-20.66 -167.72,-62.16 -43.87,-41.49 -65.8,-94.16 -65.8,-157.82 0,-63.83 21.93,-116.5 65.8,-158.33 44.01,-41.83 99.92,-62.66 167.72,-62.66 42.32,0 80.63,8.5 115.07,25.66 34.44,17 62.09,41.17 83.24,72.33l-48.03 36c-15.91,-23.66 -36.91,-41.99 -63.02,-54.83 -26.1,-12.83 -55.13,-19.16 -87.1,-19.16 -49.58,0 -90.51,15.16 -122.94,45.66 -32.43,30.33 -48.65,68.49 -48.65,114.33 0,45.83 16.22,83.99 48.8,114.32 32.59,30.5 73.52,45.67 122.79,45.67 34.29,0 64.71,-7.33 90.97,-21.84 26.25,-14.66 49.27,-37.33 69.19,-68.16l48.34 36zm410.22 102l0 -416.98 362.32 0 0 60.99 -302.09 0 0 104 198.31 0 0 59.99 -198.31 0 0 132 318.78 0 0 60 -379.01 0z"/>
    <path class="fil1" d="M9313.11 70.42l43.46 47.37c31.67,-30.62 82.57,-51.99 122.31,-51.99 86.92,0 89.4,57.77 89.4,69.9 0,13.86 -3.72,54.88 -86.29,99.94 -96.24,53.15 -145.91,72.22 -176.95,147.32l0 62.97 334.64 0 0 -62.97 -260.76 0c25.46,-39.86 62.09,-53.15 137.83,-94.17 113,-61.81 118.59,-130.56 118.59,-153.09 0,-23.69 -4.97,-133.45 -156.46,-133.45 -58.98,0 -125.41,32.93 -165.77,68.17zm782.9 385.33c96.24,0 194.95,-61.81 194.95,-223.57 0,-161.76 -98.71,-229.93 -194.95,-229.93 -96.23,0 -194.94,68.17 -194.94,229.93 0,161.76 98.71,223.57 194.94,223.57zm128.52 -223.57c0,112.07 -60.84,160.6 -128.52,160.6 -67.67,0 -128.52,-48.53 -128.52,-160.6 0,-112.08 60.85,-166.38 128.52,-166.38 67.68,0 128.52,54.3 128.52,166.38zm335.88 -161.76l43.46 47.37c31.66,-30.62 82.57,-51.99 122.31,-51.99 86.92,0 89.4,57.77 89.4,69.9 0,13.86 -3.72,54.88 -86.3,99.94 -96.23,53.15 -145.9,72.22 -176.94,147.32l0 62.97 334.64 0 0 -62.97 -260.76 0c25.45,-39.86 62.09,-53.15 137.83,-94.17 113,-61.81 118.59,-130.56 118.59,-153.09 0,-23.69 -4.97,-133.45 -156.46,-133.45 -58.98,0 -125.41,32.93 -165.77,68.17zm602.23 0l43.46 47.37c31.66,-30.62 82.57,-51.99 122.31,-51.99 86.92,0 89.4,57.77 89.4,69.9 0,13.86 -3.72,54.88 -86.3,99.94 -96.23,53.15 -145.9,72.22 -176.94,147.32l0 62.97 334.64 0 0 -62.97 -260.76 0c25.46,-39.86 62.09,-53.15 137.83,-94.17 113,-61.81 118.59,-130.56 118.59,-153.09 0,-23.69 -4.97,-133.45 -156.46,-133.45 -58.98,0 -125.41,32.93 -165.77,68.17z"/>
   </g>
   <path class="fil1" d="M5156.96 366.4l-2043.68 0 0 -41.2 2043.68 0 0 41.2zm0 -233.61l-1459.77 0 0 -41.2 1459.77 0 0 41.2zm0 116.81l-1751.73 0 0 -41.2 1751.73 0 0 41.2z"/>
   <path class="fil1" d="M11770.46 325.2l2043.68 0 0 41.2 -2043.68 0 0 -41.2zm0 -233.61l1459.77 0 0 41.2 -1459.77 0 0 -41.2zm0 116.81l1751.72 0 0 41.2 -1751.72 0 0 -41.2z"/>
  </g>
 </g>
</svg>
