<?xml version="1.0" encoding="UTF-8"?>
<!DOCTYPE svg PUBLIC "-//W3C//DTD SVG 1.1//EN" "http://www.w3.org/Graphics/SVG/1.1/DTD/svg11.dtd">
<!-- Creator: CorelDRAW -->
<svg xmlns="http://www.w3.org/2000/svg" xml:space="preserve" width="2.6504mm" height="2.6504mm" version="1.1" style="shape-rendering:geometricPrecision; text-rendering:geometricPrecision; image-rendering:optimizeQuality; fill-rule:evenodd; clip-rule:evenodd"
viewBox="0 0 265.04 265.04"
 xmlns:xlink="http://www.w3.org/1999/xlink"
 xmlns:xodm="http://www.corel.com/coreldraw/odm/2003">
 <defs>
  <style type="text/css">
   <![CDATA[
    .fil0 {fill:#FEFEFE;fill-rule:nonzero}
   ]]>
  </style>
 </defs>
 <g id="Camada_x0020_1">
  <metadata id="CorelCorpID_0Corel-Layer"/>
  <path class="fil0" d="M129.57 2.94c-73.19,0 -132.52,59.33 -132.52,132.53 0,27.83 8.59,53.65 23.25,74.98l-12.92 50.41 51.22 -13.47c20.51,13.05 44.86,20.6 70.97,20.6 73.19,0 132.53,-59.33 132.53,-132.52 0,-73.2 -59.34,-132.53 -132.53,-132.53zm-41.68 70.74c-7.46,-4.02 -17.62,7.81 -20.92,14.03 -4.95,9.37 -5.5,20.97 -1.41,31.41 14.04,36.1 60.45,76.34 98.78,73.48 13.86,-1.03 28.59,-13.71 25.99,-28.66 -0.36,-2.09 -0.73,-2.13 -2.26,-3.33 -5.25,-2.87 -26,-14.45 -30.84,-12.45 -5.19,2.79 -9.37,17.04 -17.19,15.36 -14.83,-3.2 -35.46,-23.13 -42.7,-35.35 -1.05,-1.77 -2.43,-3.82 -1.61,-5.98 2.39,-3.88 5.31,-7.26 8.12,-10.88 3.11,-4.58 1.91,-6.63 -0.08,-11.34 -2.53,-5.92 -9.92,-23.08 -15.88,-26.29zm-65.5 61.79c0,-59.2 47.99,-107.18 107.18,-107.18 59.19,0 107.18,47.98 107.18,107.18 0,59.19 -47.99,107.18 -107.18,107.18 -59.19,0 -107.18,-47.99 -107.18,-107.18z"/>
 </g>
</svg>
